<?xml version="1.0" encoding="utf-8"?>
<!-- Generator: Adobe Illustrator 21.1.0, SVG Export Plug-In . SVG Version: 6.00 Build 0)  -->
<svg version="1.1" id="Warstwa_1" xmlns="http://www.w3.org/2000/svg" xmlns:xlink="http://www.w3.org/1999/xlink" x="0px" y="0px"
	 viewBox="0 0 180 180" style="enable-background:new 0 0 180 180;" xml:space="preserve">
<style type="text/css">
	.st0{fill:#007291;}
	.st1{fill:#FFFFFF;}
</style>
<circle class="st0" cx="90.6" cy="89.4" r="86.5"/>
<g>
	<g>
		<path class="st1" d="M115.9,107c-7-5.7-14.5-9.5-16-10.2c-0.2-0.1-0.3-0.3-0.3-0.4V85.4c1.4-0.9,2.3-2.5,2.3-4.2V70
			c0-5.6-4.5-10.1-10.1-10.1h-2.4c-5.6,0-10.1,4.5-10.1,10.1v11.2c0,1.8,0.9,3.3,2.3,4.2v10.8c0,0.2-0.1,0.4-0.3,0.4
			c-1.5,0.7-9,4.5-16,10.2c-1.3,1-2,2.6-2,4.2v7.7h54.6v-7.7C117.9,109.5,117.1,108,115.9,107L115.9,107z M115.9,107"/>
		<path class="st1" d="M140.9,99.4c-5.8-4.8-12.1-8-13.4-8.6c-0.1-0.1-0.2-0.2-0.2-0.4v-9.1c1.1-0.8,1.9-2,1.9-3.5v-9.4
			c0-4.7-3.8-8.5-8.5-8.5h-2c-4.7,0-8.5,3.8-8.5,8.5v9.4c0,1.5,0.7,2.8,1.9,3.5v9.1c0,0.2-0.1,0.3-0.2,0.4c-0.8,0.4-3.5,1.7-6.9,3.9
			c3.3,1.8,8.6,5,13.6,9.1c1.7,1.4,2.9,3.4,3.3,5.6h20.7v-6.4C142.5,101.5,141.9,100.2,140.9,99.4L140.9,99.4z M140.9,99.4"/>
		<path class="st1" d="M69.3,90.8c-0.1-0.1-0.2-0.2-0.2-0.4v-9.1c1.1-0.8,1.9-2,1.9-3.5v-9.4c0-4.7-3.8-8.5-8.5-8.5h-2
			c-4.7,0-8.5,3.8-8.5,8.5v9.4c0,1.5,0.7,2.8,1.9,3.5v9.1c0,0.2-0.1,0.3-0.2,0.4c-1.3,0.6-7.6,3.8-13.4,8.6c-1,0.9-1.7,2.2-1.7,3.5
			v6.4h20.7c0.4-2.2,1.6-4.2,3.3-5.6c5-4.1,10.2-7.3,13.6-9.1C72.8,92.5,70.1,91.2,69.3,90.8L69.3,90.8z M69.3,90.8"/>
	</g>
</g>
</svg>
