<?xml version="1.0" encoding="utf-8"?>
<!-- Generator: Adobe Illustrator 21.1.0, SVG Export Plug-In . SVG Version: 6.00 Build 0)  -->
<svg version="1.1" id="Warstwa_1" xmlns="http://www.w3.org/2000/svg" xmlns:xlink="http://www.w3.org/1999/xlink" x="0px" y="0px"
	 viewBox="0 0 180 180" style="enable-background:new 0 0 180 180;" xml:space="preserve">
<style type="text/css">
	.st0{fill:#57B49B;}
	.st1{fill:#FFFFFF;}
</style>
<circle class="st0" cx="90.5" cy="89.7" r="86.5"/>
<g>
	<path class="st1" d="M97.6,89.7c0,3.9-3.2,7.1-7.1,7.1c-3.9,0-7.1-3.2-7.1-7.1c0-3.9,3.2-7.1,7.1-7.1
		C94.5,82.6,97.6,85.8,97.6,89.7L97.6,89.7z M97.6,89.7"/>
	<path class="st1" d="M130,82.7l-9.9-1.9c-0.6-2-1.4-3.9-2.4-5.7l5.7-8.4c0.5-0.8,0.4-1.9-0.2-2.6l-7.1-7.1
		c-0.7-0.7-1.8-0.8-2.6-0.2l-8.4,5.7c-1.9-1-3.8-1.8-5.9-2.4l-1.8-9.9c-0.2-0.9-1.1-1.7-2-1.7h-10c-0.9,0-1.8,0.7-2,1.7l-1.9,10
		c-2,0.6-3.9,1.4-5.7,2.4l-8.3-5.7c-0.8-0.5-1.9-0.4-2.6,0.2l-7.1,7.1c-0.7,0.7-0.8,1.8-0.2,2.6l5.7,8.3c-1,1.8-1.7,3.7-2.3,5.7
		l-9.9,1.9c-0.9,0.2-1.7,1.1-1.7,2v10c0,0.9,0.7,1.8,1.7,2l9.9,1.9c0.6,2,1.4,4,2.4,5.8l-5.6,8.2c-0.5,0.8-0.4,1.9,0.2,2.6l7.1,7.1
		c0.7,0.7,1.8,0.8,2.6,0.2l8.2-5.6c1.8,1,3.6,1.7,5.6,2.3l1.9,10c0.2,0.9,1.1,1.7,2,1.7h10c0.9,0,1.8-0.7,2-1.7l1.9-9.9
		c2-0.6,4-1.4,5.8-2.4l8.3,5.7c0.8,0.5,1.9,0.4,2.6-0.2l7.1-7.1c0.7-0.7,0.8-1.8,0.3-2.6l-5.7-8.3c1-1.8,1.8-3.8,2.4-5.8l9.9-1.9
		c0.9-0.2,1.7-1.1,1.7-2v-10C131.7,83.7,130.9,82.8,130,82.7L130,82.7z M90.5,106.8c-9.5,0-17.2-7.7-17.2-17.2
		c0-9.5,7.7-17.2,17.2-17.2c9.5,0,17.2,7.7,17.2,17.2C107.7,99.2,100,106.8,90.5,106.8L90.5,106.8z M90.5,106.8"/>
</g>
</svg>
