<?xml version="1.0" encoding="utf-8"?>
<!-- Generator: Adobe Illustrator 21.1.0, SVG Export Plug-In . SVG Version: 6.00 Build 0)  -->
<svg version="1.1" id="Warstwa_1" xmlns="http://www.w3.org/2000/svg" xmlns:xlink="http://www.w3.org/1999/xlink" x="0px" y="0px"
	 viewBox="0 0 180 180" style="enable-background:new 0 0 180 180;" xml:space="preserve">
<style type="text/css">
	.st0{fill:#FC6965;}
	.st1{fill:#FFFFFF;}
</style>
<circle class="st0" cx="91" cy="89.8" r="86.5"/>
<g>
	<path class="st1" d="M110,70.8V48.5H72v22.3H49.7v38H72V131h38v-22.3h22.3v-38H110z M71.8,98.4c0,0.4-0.3,0.7-0.8,0.9
		c-0.5,0.1-1.1,0.1-1.4-0.2l-11.1-8.7c-0.5-0.4-0.5-0.9,0-1.3l11.1-8.7c0.4-0.3,0.9-0.4,1.4-0.2c0.5,0.1,0.8,0.5,0.8,0.9V98.4z
		 M81.7,68.2l8.7-11.1c0.4-0.5,0.9-0.5,1.3,0l8.7,11.1c0.3,0.4,0.4,0.9,0.2,1.4c-0.1,0.5-0.5,0.8-0.9,0.8H82.3
		c-0.4,0-0.7-0.3-0.9-0.8C81.3,69.2,81.4,68.6,81.7,68.2z M100.3,111.3l-8.7,11.1c-0.4,0.5-0.9,0.5-1.3,0l-8.7-11.1
		c-0.3-0.4-0.4-0.9-0.2-1.4c0.1-0.5,0.5-0.8,0.9-0.8h17.3c0.4,0,0.7,0.3,0.9,0.8C100.7,110.4,100.6,110.9,100.3,111.3z M123.7,90.4
		l-11.1,8.7c-0.4,0.3-0.9,0.4-1.4,0.2c-0.5-0.1-0.8-0.5-0.8-0.9V81.1c0-0.4,0.3-0.7,0.8-0.9c0.5-0.1,1.1-0.1,1.4,0.2l11.1,8.7
		C124.2,89.5,124.2,90.1,123.7,90.4z"/>
</g>
</svg>
