<?xml version="1.0" encoding="utf-8"?>
<!-- Generator: Adobe Illustrator 21.1.0, SVG Export Plug-In . SVG Version: 6.00 Build 0)  -->
<svg version="1.1" id="Warstwa_1" xmlns="http://www.w3.org/2000/svg" xmlns:xlink="http://www.w3.org/1999/xlink" x="0px" y="0px"
	 viewBox="0 0 1928 768" style="enable-background:new 0 0 1928 768;" xml:space="preserve">
<style type="text/css">
	.st0{fill:#F9F9F9;}
</style>
<path class="st0" d="M599.1,483.5h-44.6V357.3h44.6V483.5z"/>
<path class="st0" d="M302.8,357c2.9,1.7,5.8,3.6,8.4,5.7c11.1,8.7,21.4,19.4,24.3,31.6h71.8V482H452v-87.7h86.5V357H302.8z"/>
<path class="st0" d="M318,396.6c-2.7-8.7-8.1-16.4-16.3-22.9c-12.2-9.6-27-14.4-44.4-14.4h-14.8h-20.9h-76.9
	c-17.4,0-32.2,4.8-44.4,14.4c-12.2,9.6-18.3,21.7-18.3,36.1v23.9c0,14.5,6.1,26.5,18.3,36.1c12.2,9.6,27,14.4,44.4,14.4h112.6
	c17.4,0,32.2-4.8,44.4-14.4c12.2-9.6,18.3-21.7,18.3-36.1v-23.9C319.9,405.2,319.2,400.8,318,396.6L318,396.6z M275.2,433.7
	c0,8.9-6,13.3-17.9,13.3H144.8c-11.9,0-17.9-4.4-17.9-13.3v-23.8c0-8.9,6-13.3,17.9-13.3h112.6c11.9,0,17.9,4.4,17.9,13.3V433.7z"/>
<path class="st0" d="M806.3,401.7h-41.1v0c-0.1,0-0.2,0-0.3,0h-60.3c-0.5,0-1.1,0-1.6,0l0,0h-40.3c-2.2,0-3.9-1.8-3.9-3.9
	c0-2.2,1.8-3.9,3.9-3.9h179.6c0.3,0,0.6,0,0.8,0.1v-37.1c-0.3,0-0.5,0-0.8,0H662.6c-22.6,0-41,18.4-41,41c0,22.6,18.4,41,41,41
	h101.7c0.6,0,1.3,0,1.9,0h40c2.2,0,3.9,1.8,3.9,3.9c0,2.2-1.8,3.9-3.9,3.9H627.1c-0.6,0-0.9,0-1.4,0l-0.2,37c0.5,0,10,0,10.5,0
	h170.2c22.6,0,41-18.4,41-41C847.2,420.1,828.8,401.7,806.3,401.7z"/>
<g>
	<path class="st0" d="M930.6,423.7L930.6,423.7c0-6.7,5.1-12.3,12.4-12.3c7.3,0,12.3,5.5,12.3,12.1v0.1c0,6.6-5.1,12.2-12.4,12.2
		C935.6,435.8,930.6,430.4,930.6,423.7z M950.9,423.7L950.9,423.7c0-4.7-3.3-8.5-8-8.5c-4.7,0-8,3.7-8,8.3v0.1c0,4.6,3.3,8.4,8,8.4
		C947.6,432,950.9,428.3,950.9,423.7z"/>
	<path class="st0" d="M965.4,411.8h9.3c5.5,0,9,3.1,9,7.9v0.1c0,5.3-4.2,8.1-9.4,8.1h-4.7v7.6h-4.1V411.8z M974.3,424.1
		c3.1,0,5.1-1.8,5.1-4.2v-0.1c0-2.8-2-4.2-5.1-4.2h-4.8v8.5H974.3z"/>
	<path class="st0" d="M992.9,411.8h17.5v3.7h-13.4v6.1h11.8v3.7h-11.8v6.3h13.5v3.7h-17.7V411.8z"/>
	<path class="st0" d="M1020.6,411.8h10.5c3,0,5.3,0.9,6.8,2.4c1.2,1.3,2,3,2,5.1v0.1c0,3.9-2.3,6.2-5.6,7.1l6.4,8.9h-4.9l-5.8-8.2
		h-5.2v8.2h-4.1V411.8z M1030.8,423.5c3,0,4.9-1.6,4.9-3.9v-0.1c0-2.5-1.8-3.9-4.9-3.9h-6v7.9H1030.8z"/>
	<path class="st0" d="M1058.4,411.7h3.8l10.4,23.8h-4.4l-2.4-5.7h-11.2l-2.4,5.7h-4.2L1058.4,411.7z M1064.3,426.1l-4.1-9.4l-4,9.4
		H1064.3z"/>
	<path class="st0" d="M1084.5,415.7h-7.5v-3.8h19.2v3.8h-7.5v19.8h-4.2V415.7z"/>
	<path class="st0" d="M1105.8,411.8h4.1v23.6h-4.1V411.8z"/>
	<path class="st0" d="M1121.4,411.8h3.8l12.6,16.3v-16.3h4.1v23.6h-3.5l-13-16.8v16.8h-4.1V411.8z"/>
	<path class="st0" d="M1152,423.7L1152,423.7c0-6.7,5.1-12.3,12.2-12.3c4.1,0,6.6,1.1,9.1,3.2l-2.6,3.1c-1.8-1.6-3.6-2.5-6.6-2.5
		c-4.4,0-7.7,3.8-7.7,8.3v0.1c0,4.9,3.2,8.4,8,8.4c2.2,0,4.2-0.7,5.7-1.8v-4.4h-6v-3.6h10v9.9c-2.3,2-5.7,3.7-9.8,3.7
		C1156.9,435.8,1152,430.6,1152,423.7z"/>
	<path class="st0" d="M1199.7,411.8h10.5c3,0,5.3,0.9,6.8,2.4c1.2,1.3,2,3,2,5.1v0.1c0,3.9-2.3,6.2-5.6,7.1l6.4,8.9h-4.9l-5.8-8.2
		h-5.2v8.2h-4.1V411.8z M1210,423.5c3,0,4.9-1.6,4.9-3.9v-0.1c0-2.5-1.8-3.9-4.9-3.9h-6v7.9H1210z"/>
	<path class="st0" d="M1228.1,423.7L1228.1,423.7c0-6.7,5.1-12.3,12.4-12.3c7.3,0,12.3,5.5,12.3,12.1v0.1c0,6.6-5.1,12.2-12.4,12.2
		C1233.2,435.8,1228.1,430.4,1228.1,423.7z M1248.5,423.7L1248.5,423.7c0-4.7-3.3-8.5-8-8.5c-4.7,0-8,3.7-8,8.3v0.1
		c0,4.6,3.3,8.4,8,8.4C1245.2,432,1248.5,428.3,1248.5,423.7z"/>
	<path class="st0" d="M1261.9,423.7L1261.9,423.7c0-6.7,5.1-12.3,12.4-12.3c7.3,0,12.3,5.5,12.3,12.1v0.1c0,6.6-5.1,12.2-12.4,12.2
		C1266.9,435.8,1261.9,430.4,1261.9,423.7z M1282.2,423.7L1282.2,423.7c0-4.7-3.3-8.5-8-8.5c-4.7,0-8,3.7-8,8.3v0.1
		c0,4.6,3.3,8.4,8,8.4C1278.9,432,1282.2,428.3,1282.2,423.7z"/>
	<path class="st0" d="M1296.6,411.8h4.4l7.2,11.2l7.2-11.2h4.4v23.6h-4.1v-16.9l-7.5,11.1h-0.1l-7.4-11.1v16.9h-4.1V411.8z"/>
	<path class="st0" d="M1346.1,411.8h4.4l7.2,11.2l7.2-11.2h4.4v23.6h-4.1v-16.9l-7.5,11.1h-0.1l-7.4-11.1v16.9h-4.1V411.8z"/>
	<path class="st0" d="M1388.8,411.7h3.8l10.4,23.8h-4.4l-2.4-5.7h-11.2l-2.4,5.7h-4.2L1388.8,411.7z M1394.8,426.1l-4.1-9.4l-4,9.4
		H1394.8z"/>
	<path class="st0" d="M1412.2,411.8h3.8l12.6,16.3v-16.3h4.1v23.6h-3.5l-13-16.8v16.8h-4.1V411.8z"/>
	<path class="st0" d="M1452.2,411.7h3.8l10.4,23.8h-4.4l-2.4-5.7h-11.2l-2.4,5.7h-4.2L1452.2,411.7z M1458.2,426.1l-4.1-9.4l-4,9.4
		H1458.2z"/>
	<path class="st0" d="M1473,423.7L1473,423.7c0-6.7,5.1-12.3,12.2-12.3c4.1,0,6.6,1.1,9.1,3.2l-2.6,3.1c-1.8-1.6-3.6-2.5-6.6-2.5
		c-4.4,0-7.7,3.8-7.7,8.3v0.1c0,4.9,3.2,8.4,8,8.4c2.2,0,4.2-0.7,5.7-1.8v-4.4h-6v-3.6h10.1v9.9c-2.3,2-5.7,3.7-9.8,3.7
		C1477.9,435.8,1473,430.6,1473,423.7z"/>
	<path class="st0" d="M1505.6,411.8h17.5v3.7h-13.4v6.1h11.8v3.7h-11.8v6.3h13.5v3.7h-17.7V411.8z"/>
	<path class="st0" d="M1533.2,411.8h4.4l7.2,11.2l7.2-11.2h4.4v23.6h-4.1v-16.9l-7.5,11.1h-0.1l-7.4-11.1v16.9h-4.1V411.8z"/>
	<path class="st0" d="M1567.6,411.8h17.5v3.7h-13.4v6.1h11.8v3.7h-11.8v6.3h13.5v3.7h-17.7V411.8z"/>
	<path class="st0" d="M1595.2,411.8h3.8l12.6,16.3v-16.3h4.1v23.6h-3.5l-13-16.8v16.8h-4.1V411.8z"/>
	<path class="st0" d="M1632.7,415.7h-7.5v-3.8h19.2v3.8h-7.5v19.8h-4.2V415.7z"/>
	<path class="st0" d="M1667.4,432l2.5-3c2.3,2,4.6,3.1,7.5,3.1c2.6,0,4.2-1.2,4.2-3v-0.1c0-1.7-0.9-2.6-5.3-3.6
		c-5-1.2-7.9-2.7-7.9-7v-0.1c0-4,3.4-6.8,8.1-6.8c3.4,0,6.2,1,8.6,3l-2.2,3.1c-2.1-1.6-4.2-2.4-6.4-2.4c-2.4,0-3.8,1.2-3.8,2.8v0.1
		c0,1.8,1.1,2.6,5.6,3.7c5,1.2,7.6,3,7.6,6.9v0.1c0,4.4-3.5,7-8.4,7C1673.7,435.8,1670.3,434.5,1667.4,432z"/>
	<path class="st0" d="M1701.6,426.1l-9.4-14.3h4.9l6.6,10.4l6.7-10.4h4.8l-9.4,14.2v9.4h-4.2V426.1z"/>
	<path class="st0" d="M1721.1,432l2.5-3c2.3,2,4.6,3.1,7.5,3.1c2.6,0,4.2-1.2,4.2-3v-0.1c0-1.7-0.9-2.6-5.3-3.6
		c-5-1.2-7.9-2.7-7.9-7v-0.1c0-4,3.4-6.8,8.1-6.8c3.4,0,6.2,1,8.6,3l-2.2,3.1c-2.1-1.6-4.2-2.4-6.4-2.4c-2.4,0-3.8,1.2-3.8,2.8v0.1
		c0,1.8,1.1,2.6,5.6,3.7c5,1.2,7.6,3,7.6,6.9v0.1c0,4.4-3.5,7-8.4,7C1727.3,435.8,1723.9,434.5,1721.1,432z"/>
	<path class="st0" d="M1754.6,415.7h-7.5v-3.8h19.2v3.8h-7.5v19.8h-4.2V415.7z"/>
	<path class="st0" d="M1775.7,411.8h17.5v3.7h-13.4v6.1h11.8v3.7h-11.8v6.3h13.5v3.7h-17.7V411.8z"/>
	<path class="st0" d="M1803.4,411.8h4.4l7.2,11.2l7.2-11.2h4.4v23.6h-4.1v-16.9l-7.5,11.1h-0.1l-7.4-11.1v16.9h-4.1V411.8z"/>
</g>
<g>
	<path class="st0" d="M870.6,355.1c2,0,3.8,0.5,5.6,1.5c1.8,1,3.2,2.4,4.2,4.2c1,1.8,1.5,3.7,1.5,5.7c0,2-0.5,3.9-1.5,5.7
		c-1,1.8-2.4,3.2-4.2,4.2c-1.8,1-3.7,1.5-5.7,1.5c-2,0-3.9-0.5-5.7-1.5c-1.8-1-3.2-2.4-4.2-4.2c-1-1.8-1.5-3.7-1.5-5.7
		c0-2,0.5-3.9,1.5-5.7c1-1.8,2.4-3.2,4.2-4.2C866.8,355.6,868.7,355.1,870.6,355.1z M870.7,357.4c-1.6,0-3.1,0.4-4.5,1.2
		c-1.4,0.8-2.6,1.9-3.4,3.4c-0.8,1.5-1.2,3-1.2,4.6c0,1.6,0.4,3.1,1.2,4.6s1.9,2.6,3.4,3.4c1.4,0.8,3,1.2,4.6,1.2
		c1.6,0,3.1-0.4,4.6-1.2c1.4-0.8,2.6-1.9,3.4-3.4c0.8-1.4,1.2-3,1.2-4.6c0-1.6-0.4-3.1-1.2-4.6c-0.8-1.5-2-2.6-3.4-3.4
		C873.7,357.7,872.2,357.4,870.7,357.4z M865.5,372.6v-12.1h2.5c2.3,0,3.6,0,3.9,0c0.8,0.1,1.4,0.2,1.9,0.5c0.5,0.3,0.8,0.6,1.1,1.2
		c0.3,0.5,0.5,1.1,0.5,1.7c0,0.9-0.3,1.6-0.9,2.2c-0.6,0.6-1.4,1-2.4,1.2c0.4,0.1,0.6,0.3,0.8,0.5c0.2,0.2,0.5,0.5,0.8,0.9
		c0.1,0.1,0.4,0.6,0.9,1.5l1.4,2.4h-3l-1-2c-0.7-1.3-1.3-2.2-1.7-2.5c-0.4-0.3-1-0.5-1.7-0.5h-0.6v5H865.5z M867.9,365.7h1
		c1.4,0,2.3-0.1,2.6-0.2c0.3-0.1,0.6-0.3,0.8-0.6c0.2-0.3,0.3-0.6,0.3-0.9c0-0.3-0.1-0.6-0.3-0.9c-0.2-0.3-0.5-0.5-0.8-0.6
		c-0.4-0.1-1.2-0.2-2.6-0.2h-1V365.7z"/>
</g>
</svg>
