<?xml version="1.0" encoding="utf-8"?>
<!-- Generator: Adobe Illustrator 21.1.0, SVG Export Plug-In . SVG Version: 6.00 Build 0)  -->
<svg version="1.1" id="Warstwa_1" xmlns="http://www.w3.org/2000/svg" xmlns:xlink="http://www.w3.org/1999/xlink" x="0px" y="0px"
	 viewBox="0 0 300 294" style="enable-background:new 0 0 300 294;" xml:space="preserve">
<style type="text/css">
	.st0{display:none;}
	.st1{display:inline;}
	.st2{fill:#010101;}
</style>
<g>
	<path d="M150.5,274C80.7,274,24,217.2,24,147.5S80.7,21,150.5,21S277,77.7,277,147.5S220.3,274,150.5,274z M150.5,54
		C98.9,54,57,95.9,57,147.5S98.9,241,150.5,241S244,199,244,147.5S202.1,54,150.5,54z"/>
</g>
<g>
	<path d="M150.5,202.5c-9.1,0-16.5-7.4-16.5-16.5v-77c0-9.1,7.4-16.5,16.5-16.5S167,99.9,167,109v77
		C167,195.1,159.6,202.5,150.5,202.5z"/>
</g>
<g class="st0">
	<g class="st1">
		<path class="st2" d="M150.5,274C80.7,274,24,217.3,24,147.5S80.7,21,150.5,21S277,77.7,277,147.5S220.3,274,150.5,274z
			 M150.5,53.9c-51.6,0-93.6,41.9-93.6,93.6S98.9,241,150.5,241s93.6-41.9,93.6-93.6S202.1,53.9,150.5,53.9z"/>
	</g>
	<g class="st1">
		<path class="st2" d="M150.5,213.4c-36.3,0-65.9-29.5-65.9-65.9s29.5-65.9,65.9-65.9s65.9,29.5,65.9,65.9S186.8,213.4,150.5,213.4z
			 M150.5,114.7c-18.2,0-32.8,14.8-32.8,32.8c0,18.2,14.8,32.8,32.8,32.8c18.2,0,32.8-14.8,32.8-32.8
			C183.3,129.3,168.7,114.7,150.5,114.7z"/>
	</g>
</g>
</svg>
